<svg t="1692695545126" class="icon pulse" viewBox="0 0 1024 1024" version="1.1" xmlns="http://www.w3.org/2000/svg" p-id="10785" width="200" height="200">
    <style>
    @keyframes heartbeat {
      0% {
        transform: scale(1);
      }
      50% {
        transform: scale(0.8);
      }
      100% {
        transform: scale(1);
      }
    }
    .pulse {
      transform-origin: center;
      animation: heartbeat 1.5s infinite;
    }
  </style>
  <g transform="translate(512, 512)">
    <g transform="translate(-512, -512)">
        <path d="M483.437479 347.83566a355.981679 355.981679 0 0 1 68.751612-53.600978C600.002561 266.112046 686.698776 239.50281 686.698776 239.50281s14.551926 32.879037 15.599665 59.87078-68.718351 57.259749-68.718351 57.259749-117.928806 53.035533-150.142611-8.797679zM593.30036 30.171281a45.967454 45.967454 0 0 0-13.304618-14.568557C557.99323 41.413683 554.301199 82.009398 574.374541 109.782787a3.043431 3.043431 0 0 0 3.0268 1.330462c-2.295047-6.23654-8.365278-31.265852 15.899019-80.941968z" fill="#C01D39" p-id="10786"></path><path d="M551.856475 66.675826a238.551796 238.551796 0 0 0 0.332616 33.39459s-7.766571-17.87808-8.514956-24.330819a89.440293 89.440293 0 0 1 1.031108-44.903085 143.024641 143.024641 0 0 1 6.752094-19.458004 27.374251 27.374251 0 0 0-9.230079 5.987078c-21.620004 43.871977-13.13831 98.553956-13.13831 98.553956l49.060778-3.060062a14.818018 14.818018 0 0 1-0.681861-1.663077 3.043431 3.043431 0 0 1-3.026801-1.330462c-20.073342-27.806651-16.381311-68.402366 5.687724-94.213324a35.905837 35.905837 0 0 0-9.562694-4.756401 111.259866 111.259866 0 0 0-10.676956 20.605527 129.986115 129.986115 0 0 0-8.032663 35.174083z" fill="#C9293E" p-id="10787"></path><path d="M547.831829 54.119593A90.604447 90.604447 0 0 1 555.897753 9.998154a24.646804 24.646804 0 0 0-4.506939 1.330462 143.024641 143.024641 0 0 0-6.752094 19.458003 89.440293 89.440293 0 0 0-1.031108 44.903085c0.814908 6.45274 8.531586 24.297558 8.581479 24.33082a238.551796 238.551796 0 0 1-0.332616-33.394591 129.986115 129.986115 0 0 1 7.96614-35.223975 111.259866 111.259866 0 0 1 10.676956-20.605527 30.949867 30.949867 0 0 0-7.567001-1.280569 107.218588 107.218588 0 0 0-6.519263 13.820171c-3.692031 10.094879-8.564848 30.983129-8.581478 30.78356z" fill="#D43651" p-id="10788"></path><path d="M555.897753 9.998154a90.604447 90.604447 0 0 0-8.065924 44.121439c0 0.199569 4.889447-20.688681 8.581478-30.733667a107.218588 107.218588 0 0 1 6.519263-13.820172 26.808805 26.808805 0 0 0-7.034817 0.4324z" fill="#D94366" p-id="10789"></path><path d="M582.340681 175.391184c-18.875926-12.27351-42.4251-16.630772-62.781165-5.305217-18.692988 10.32771-30.450944 29.835605-35.52333 50.091886-5.155539 20.522373-6.652309 61.184611-5.122277 71.71189-5.454893-7.783201-10.078248-25.694543-10.078248-50.723855 0-82.987553 32.446637-127.108992 93.132324-119.74156 33.145129 4.008016 56.777456 21.620004 76.002629 48.827947 3.758555 5.321847 13.886695 24.014835 20.821727 38.250776l6.203278-3.076693s-17.678511-54.681979-59.238811-81.723614c-58.556949-38.084468-102.262618-26.259989-134.260224 6.652308s-32.047498 197.739881-32.047498 197.739882l31.980975 49.75927 24.713328-21.204234c0.365877-20.67205 1.380354-41.393992 1.663077-61.650273 0.349246-18.726249 0.465662-37.485761 1.164154-56.195379 0.465662-12.622756 1.663077-25.810958 8.18234-36.903684 11.475233-19.275065 35.97236-24.946158 56.727564-19.773988 23.981573 6.03697 42.258792 25.84422 53.700763 46.981932l6.652309-3.326155c-6.269801-11.774587-14.285833-24.397343-17.628619-28.355466a114.619282 114.619282 0 0 0-24.264296-22.035773z" fill="#C9293E" p-id="10790"></path><path d="M637.904091 170.318798C618.678918 143.160747 595.046591 125.498867 561.967985 121.424328c-60.669057-7.367432-93.132324 36.754007-93.132324 119.74156 0 24.946158 4.673247 42.874131 10.12814 50.657332-1.546662-10.527279 0-51.189517 5.122278-71.71189 4.989232-20.256281 16.830341-39.764176 35.523329-50.091886 20.356065-11.275664 43.905239-6.968294 62.781165 5.305216a114.619282 114.619282 0 0 1 24.264297 22.069035c3.326154 3.958124 11.358817 16.630772 17.628618 28.355467l34.492222-17.212849c-7.001555-14.202679-17.113065-32.895667-20.871619-38.217515z" fill="#C9293E" p-id="10791"></path><path d="M578.598757 154.336626c-28.471882-16.464464-61.999519-11.774587-93.24874 26.293251 7.683417-37.735222 54.548933-52.869225 87.827108-44.35427C606.87107 144.890347 640.631537 177.968953 648.448 213.708483l10.227925-5.105647c-6.935032-14.269203-17.063172-32.96219-20.821727-38.250776C618.678918 143.160747 595.046591 125.498867 561.967985 121.424328c-60.669057-7.367432-93.132324 36.754007-93.132324 119.74156 0 24.946158 4.673247 42.874131 10.12814 50.657332-1.546662-10.527279 0-51.189517 5.122278-71.71189 4.989232-20.256281 16.830341-39.764176 35.523329-50.091886 20.356065-11.275664 43.905239-6.968294 62.781165 5.305216a114.619282 114.619282 0 0 1 24.264297 22.069035c3.326154 3.958124 11.358817 16.630772 17.628618 28.355467L633.480305 221.208961c-10.311079-26.476189-29.586144-52.270517-54.881548-66.872335z" fill="#D43651" p-id="10792"></path><path d="M573.243648 136.275607c-33.261544-8.514955-80.143691 6.652309-87.827107 44.35427 31.249221-38.067838 64.776858-42.757715 93.182216-26.293251 25.228881 14.601818 44.503946 40.396146 54.881548 66.839073l19.707465-9.845417c-20.489111-41.393992-46.316701-66.439935-79.944122-75.054675z" fill="#D94366" p-id="10793"></path><path d="M518.445254 236.176656c0-35.406914 39.448192-50.723855 60.220026-30.58399S603.544915 236.176656 603.544915 236.176656l14.036372-7.001555c-11.441971-21.137711-29.71919-40.944961-53.700763-46.981932-20.755204-5.222062-45.252331 0.498923-56.727564 19.773989-6.652309 11.092725-7.716678 24.280927-8.18234 36.903683-0.698492 18.709619-0.814908 37.46913-1.164154 56.195379-0.349246 20.256281-1.363723 40.978223-1.663077 61.650273l23.91505-20.555635s-1.613185-64.643811-1.613185-99.984202z" fill="#C01D39" p-id="10794"></path><path d="M721.440459 579.701886c-19.557788-41.36073-50.624071-65.824596-83.153861-96.308802-56.710933-53.218471-13.304618-107.667619 42.391839-136.505378 2.278416-1.197416 42.508254-21.137711 57.908349-30.417682-0.698492-13.304618-1.230677-26.609235-5.138909-38.699807-48.079562 13.57071-149.992934 46.216916-192.351511 67.820289-43.356423 22.118927-82.571784 51.555394-114.270036 88.658647-69.982289 81.856661-95.460632 196.359527-69.56652 300.66773 13.304618 53.61761 40.612346 101.281403 75.736537 143.523564 36.787268 44.254485 82.987553 97.822202 146.068072 95.759986 58.623472-1.92917 99.269079-69.849243 123.982406-115.783436 20.605527-38.250776 29.735821-77.998322 41.576931-118.078482 6.535893-54.48241 0.731754-110.012558-23.183297-160.636629z" fill="#E64E5A" p-id="10795"></path><path d="M579.064419 974.200433c-63.080519 2.062216-109.280804-51.555394-146.068072-95.759986-35.124191-42.242161-62.431919-89.905954-75.736537-143.523564-25.894112-104.308203-0.415769-218.81107 69.633043-300.66773 31.698252-37.03673 70.913613-66.523089 114.270036-88.658647 42.358577-21.620004 144.271949-54.249579 192.351511-67.820289a52.819332 52.819332 0 0 0-10.56054-18.925819c-32.696098 6.652309-142.209733 42.075854-177.566755 60.120242-41.061377 20.938142-82.571784 44.986239-118.078483 74.439336-32.163913 26.609235-57.825195 60.30318-80.443045 95.41074-38.250776 59.388487-51.239409 123.61653-51.256039 167.388722 0 74.173244 36.720745 142.010164 57.060179 174.273862a506.606582 506.606582 0 0 0 55.446994 76.119044c41.743238 47.547378 126.959315 137.203871 198.488266 107.46805 29.93539-12.473079 47.364439-43.140223 62.631489-70.065443 23.05025-40.612346 43.805454-82.904399 58.324118-127.375084a399.454517 399.454517 0 0 0 17.113064-76.252091c-11.824479 40.046899-20.954773 79.827706-41.57693 118.078483-24.713327 45.817777-65.408827 113.821005-124.032299 115.750174z" fill="#DA4054" p-id="10796"></path><path d="M722.072429 645.576375c-7.982771-53.950225-41.57693-100.433233-80.276738-137.18724-21.004665-19.956927-44.5871-37.46913-70.298274-46.566162-15.49988-6.818617-119.608514-12.389925-153.851273 102.595234-32.114021 107.833927-4.989232 227.076563 68.535412 312.658517 31.182698 36.304976 76.285352 56.760825 122.618683 32.213805 43.356423-22.967096 67.40452-51.555394 84.983246-95.776617 20.289542-51.006578 36.438022-112.823159 28.288944-167.937537z" fill="#EA5E72" opacity=".7" p-id="10797"></path><path d="M632.050059 517.852044c-25.428451-22.351758-83.004184-57.010287-125.878315-19.408111-28.172528 24.696697-24.779851 84.251492-21.486957 118.843498a397.475455 397.475455 0 0 0 29.73582 117.446514c13.820172 32.463267 31.997606 70.697413 63.629335 89.573339 67.936704 40.529192 117.779129-38.383822 126.693222-96.325433 11.891002-77.066998-13.454295-158.125382-72.693105-210.129807z" fill="#ED778E" opacity=".5" p-id="10798"></path><path d="M650.37717 563.021222C638.469537 539.921079 591.903375 491.791624 536.705842 503.366642c-21.786312 4.556832-20.206388 33.394591-14.834649 52.386932 9.595956 33.893514 28.00622 68.186166 48.578486 96.458479 13.304618 18.293849 30.617252 42.375208 56.394948 37.452499 52.619763-10.011725 40.595715-93.315263 23.532543-126.64333z" fill="#ED778E" opacity=".7" p-id="10799"></path><path d="M639.999568 352.775c-25.993897 7.367432-65.175996 23.981573-71.678628 53.650871-6.652309 30.617252 23.283081 56.045702 47.530747 67.936704a2.710816 2.710816 0 0 0 3.791816-1.180785 3.841708 3.841708 0 0 0 4.856185-5.338478c-11.092725-19.707465-15.366834-42.159007-10.444125-64.444242 4.174324-18.759511 15.167264-31.764775 24.946159-47.564008a0.582077 0.582077 0 0 0-0.781647-0.814908l-0.315984 0.199569c0.831539-0.565446 1.663077-1.130893 2.477985-1.663077 0.249462-0.315985 0.083154-0.964585-0.382508-0.781646z" fill="#DA4054" p-id="10800"></path><path d="M460.952675 194.183956c9.246709-38.134361 55.829502-59.039241 71.013397-64.860011a72.859413 72.859413 0 0 0 0.2162-10.261187c-41.294207 11.142617-78.646922 43.622515-90.820647 85.049769-7.833094 26.742282-7.167863 56.943764-6.652309 84.550846a569.537424 569.537424 0 0 0 7.733309 84.384538 107.650988 107.650988 0 0 0 2.710816 12.439818l15.549772-6.851879s-17.678511-110.544743 0.249462-184.451894z" fill="#2F61AD" p-id="10801"></path><path d="M440.762917 177.569815a173.841462 173.841462 0 0 0-15.882387 38.749699c-7.683417 39.398299-0.881431 79.827706 0.332615 121.404637 0 1.097631-1.446877 1.130893-1.762862 0.249461s-0.565446-1.746231-0.8648-2.5944c-0.099785-0.083154-0.2162-0.133046-0.266092-0.249462-0.964585-1.912539-1.862646-3.891601-2.710816-5.887293 0.099785 3.326154 0.2162 6.652309 0.266092 9.89531 0 5.521416-8.315386 5.454893-8.514955 0-0.881431-17.811557-1.895908-35.855945-2.195262-53.883702-0.964585-11.824479-0.947954-137.237132 1.380354-180.294202 1.862646-34.375806 3.326154-69.333689 10.56054-103.110787a26.875328 26.875328 0 0 0-12.838956 8.880832s-11.508494 129.337515-11.408709 240.530858c0 45.518423 9.246709 151.206981 9.246709 151.206981l38.965899-17.162957a107.650988 107.650988 0 0 1-2.710816-12.439817 569.537424 569.537424 0 0 1-7.733309-84.384539c-0.4324-27.607082-1.097631-57.808564 6.652309-84.550845 12.173725-41.427254 49.52644-73.907152 90.820647-85.049769a63.196934 63.196934 0 0 0-2.36157-14.601818c-37.219668 13.603972-68.086381 36.138668-88.974631 73.291813z" fill="#406CB4" p-id="10802"></path><path d="M424.947053 82.342013c-1.280569 22.601219-1.92917 45.2357-2.477985 67.83692-0.166308 7.483847-0.133046 14.967695-0.133046 22.61785 0.8648-2.112108 20.721942-38.816222 51.671809-59.105764 13.620602-8.930725 30.633882-18.476788 47.780208-24.147881l0.84817-0.349247a41.57693 41.57693 0 0 0-7.700048-8.18234s-39.132207 9.097032-60.436226 30.184852c0 0-11.940894-23.748743-11.42534-52.004425 0.315985-18.293849 3.692031-42.075854 6.03697-56.677671A48.229239 48.229239 0 0 0 435.457701 0.019691c-1.097631 4.457047-2.14537 8.914094-2.976908 13.404402a556.715099 556.715099 0 0 0-7.53374 68.91792z" fill="#406CB4" p-id="10803"></path><path d="M439.449086 159.142919c17.146326-30.783559 50.374609-53.218471 84.301384-68.036489-0.382508-0.615339-0.681862-1.313831-1.114261-1.912539l-0.84817 0.349247c-17.146326 5.671093-34.159606 15.250418-47.780208 24.147881-30.949867 20.289542-50.807009 56.993656-51.738332 59.105764 0-7.583632 0-15.134003 0.133046-22.61785 0.548815-22.601219 1.197416-45.2357 2.477985-67.83692a556.715099 556.715099 0 0 1 7.600263-68.884658c0.831539-4.490308 1.879277-8.947355 2.976908-13.404403a39.514715 39.514715 0 0 0-14.352357 1.912539c-7.251017 33.727206-8.697894 68.685089-10.56054 103.110788-2.328308 43.057069-2.344939 168.469722-1.380354 180.294201 0.299354 18.027757 1.313831 36.072145 2.195262 53.883702 0.249462 5.454893 8.598109 5.521416 8.514955 0 0-3.326154-0.166308-6.652309-0.266092-9.89531 0.848169 1.995693 1.663077 3.974755 2.710816 5.887294 0 0.116415 0.166308 0.166308 0.266092 0.249461 0.299354 0.848169 0.532185 1.746231 0.8648 2.594401s1.796123 0.848169 1.762862-0.249462c-1.214046-41.709977-8.016032-82.072861-0.332615-121.404637a173.841462 173.841462 0 0 1 15.882387-38.749699c20.88825-37.153145 51.754963-59.687841 89.057785-73.175398-0.332615-1.130893-0.831539-2.195262-1.230677-3.326154a190.006572 190.006572 0 0 0-31.23259 13.304618c-20.489111 11.225771-45.318854 33.178391-57.908349 44.653623z" fill="#5581C2" p-id="10804"></path><path d="M439.449086 159.142919c12.589495-11.475233 37.419237-33.427852 57.908349-44.670254a190.006572 190.006572 0 0 1 31.23259-13.304618 47.830101 47.830101 0 0 0-4.839555-9.978463c-33.926775 14.751495-67.155058 37.169776-84.301384 67.953335z" fill="#6494CE" p-id="10805"></path><path d="M454.499935 111.196403c-2.062216-38.150991 9.712371-98.786787 9.712371-98.786787a32.463267 32.463267 0 0 0-15.100741-9.895309c-2.344939 14.601818-5.720986 38.417084-6.03697 56.677671-0.515554 28.255682 11.42534 52.004425 11.42534 52.004425z" fill="#2F61AD" p-id="10806"></path><path d="M609.432209 537.958648c-7.600263-14.086264-66.090689-46.250177-69.416843-8.315386-0.997846 11.20914 9.396386 24.164512 15.466618 33.111867 5.305216 7.833094 11.292294 11.259033 21.021296 10.494018 16.36468-1.2972 43.240008-16.198372 32.928929-35.290499zM650.576739 609.454338c-2.195262-11.009571-11.641541-28.189159-22.950466-32.479898-7.483847-2.843862-15.533141 0.781646-20.073342 7.201124-12.506341 17.628619 2.328308 48.778055 4.124432 59.288703 1.2972 7.500478 6.02034 20.88825 14.169418 23.798635 8.980617 3.326154 16.397941-9.512802 19.358219-16.065326 5.521416-12.256879 7.999401-28.505144 5.371739-41.743238z" fill="#F098AE" opacity=".7" p-id="10807"></path><path d="M665.294972 74.342612a45.135916 45.135916 0 0 0-7.234385-20.489112c-27.523928 14.285833-52.636394 52.503348-38.832853 80.160322 3.309524-11.475233 13.670495-32.546421 46.067238-59.67121z" fill="#C01D39" p-id="10808"></path><path d="M590.72259 105.259217c-2.727447-15.93228 21.486958-44.620362 44.703516-65.159365a27.257836 27.257836 0 0 0-11.558387 1.663077C593.965591 66.442995 573.609525 103.130478 566.508186 117.349789c19.042234 0.981216 37.369345 9.729002 51.389086 22.83405a43.605885 43.605885 0 0 1 1.330462-6.170017c-13.803541-27.656974 11.308925-65.874489 38.832853-80.160322a34.625268 34.625268 0 0 0-7.350802-7.849724 318.695487 318.695487 0 0 0-59.987195 59.255441z" fill="#C9293E" p-id="10809"></path><path d="M607.070639 77.835074c5.138909-12.456448 15.28368-23.183296 25.312035-31.931083 1.879277-1.663077 3.991385-3.475831 6.219909-5.338478a25.19562 25.19562 0 0 0-3.176477-0.465661c-23.283081 20.539004-47.430962 49.227086-44.703516 65.159365a318.695487 318.695487 0 0 1 59.987195-59.255441 29.103851 29.103851 0 0 0-4.1078-2.627662c-2.993539 1.979062-5.887293 3.991385-9.013879 6.286432a183.138063 183.138063 0 0 0-30.517467 28.172528z" fill="#D43651" p-id="10810"></path><path d="M632.382674 45.903991c-9.978463 8.747786-20.173127 19.474634-25.312035 31.931083a183.138063 183.138063 0 0 1 30.517467-28.172528c3.126585-2.295047 6.02034-4.30737 9.013879-6.286432a27.14142 27.14142 0 0 0-7.999402-2.810601c-2.228523 1.862646-4.340632 3.708662-6.219909 5.338478z" fill="#D94366" p-id="10811"></path><path d="M688.361854 761.891996c-0.997846-13.437664-4.989232-29.153744-5.471525-41.111269 8.947355 8.864202 17.811557 16.713926 26.04379 24.946158 16.215003 16.081957 30.351159 36.970207 31.465421 58.207703 6.768724-5.38837 3.193108-12.972002 3.243-13.105049a90.804016 90.804016 0 0 0-11.076094-24.946158c-9.063771-13.653864-21.237496-24.76322-33.261544-35.822683-13.304618-12.206987-25.478343-27.607082-28.438621-45.052762-2.544508-14.967695 2.444724-23.000358 3.026801-38.733069 1.114262-30.600621-7.467217-60.652426-19.291696-88.592123a888.582158 888.582158 0 0 0-46.067239-92.783078 0.365877 0.365877 0 0 0-0.6486 0.266092c10.161402 32.612944 29.636036 62.282242 42.624669 93.847448 13.554079 32.879037 23.515912 69.499997 14.41888 104.607557-5.637832 21.620004-35.556591 41.876284-36.587699 42.541515-11.807848 7.467217-26.193466 5.870663-38.017946 14.235941-10.144771 7.201124-17.611988 17.412418-23.033619 28.521774-6.170016 12.622756-9.629217 26.343143-13.537449 39.747546-5.504786 18.809403-13.454295 34.359175-23.748742 50.873532-0.266092 0.449031 0.315985 1.114262 0.781646 0.765015 21.486958-16.464464 25.262143-49.044147 33.344698-73.058982 5.937186-17.611988 15.117372-36.587699 32.114021-45.967454 7.450586-4.124432 17.512203-4.008016 25.528236-6.984924a159.339428 159.339428 0 0 0-33.926776 38.550129c-10.494017 17.063172-17.994496 35.806053-23.948312 54.881549-6.136755 19.624311 3.326154 91.702078-1.280569 118.860128-1.047739 6.170016 1.663077 7.467217 3.326154 0.449031 5.271955-21.620004-2.5944-101.164987 4.407155-122.502268 7.284278-22.118927 16.896865-43.589254 31.066283-62.182457 12.872218-16.913495 29.652667-28.155897 45.4519-41.909546a94.180063 94.180063 0 0 0 12.389925-12.888848c-5.288586 12.70591-14.967695 41.926177-17.794926 63.812273-3.87497 30.617252 0.781646 80.925337 19.773988 109.181019 3.65877 5.421632 3.326154 0.582077 1.979062-1.912539-17.828188-32.895667-21.137711-86.962308-13.57071-121.986714 3.060062-14.152787 10.510648-31.465421 15.250418-44.903085 3.858339 7.700048 6.286432 15.316941 12.456448 21.819574 3.176477 20.938142 5.255324 42.657931 9.346494 63.379872 3.326154 16.813711 10.710217 37.169776 25.262143 46.815624 0.964585 0.6486 2.411462-0.681862 1.663077-1.663077-14.884541-19.507896-23.46602-35.223975-25.262142-60.203395zM697.392363 585.273195c-14.535295-27.14142-21.071188-62.515073-46.932039-82.322322-0.582077-0.465662-1.197416 0.399139-0.931324 0.931323 6.652309 13.953218 17.578726 26.043789 24.863005 39.913853 7.433955 14.152787 11.641541 29.71919 18.975711 43.838716 12.206987 23.399496 38.76633 34.924622 46.566162 61.034933a2.128739 2.128739 0 0 0 4.09117-1.114261c-4.556832-26.958482-34.409068-39.448192-46.632685-62.282242z" fill="#406CB4" p-id="10812"></path><path d="M489.091941 806.928127c-18.293849-21.403804-47.148239-31.831298-72.260705-43.539362a177.46697 177.46697 0 0 0-21.620004-44.503946c-14.053002-20.904881-28.172528-40.828546-35.007775-65.47535a167.970799 167.970799 0 0 1-5.854032-39.365038c6.818617 8.714525 17.296003 11.907633 27.041635 17.628618 18.94245 11.076094 24.11462 33.261544 31.249221 52.586502 9.579325 25.794328 21.337281 58.35738 46.981932 72.277336a1.413616 1.413616 0 0 0 1.663077-2.211893C449.460811 742.217792 438.900271 730.493098 431.050546 715.142895c-8.149078-16.032064-13.770279-33.261544-20.189757-49.892317-4.606724-12.024048-9.662479-24.364081-19.956927-32.729359 27.856543 1.396985 34.492222 26.92522 48.711532 47.730316 10.294448 15.050849 29.735821 19.39148 39.481453 34.608637 1.530031 2.394831 3.625508 1.979062 2.494616-0.532185-4.024647-8.880832-11.159248-13.587341-18.875927-19.042234-15.466618-10.943048-22.61785-23.981573-31.947713-39.913853-8.149078-13.886695-29.469728-35.822683-47.131608-27.690236-11.076094-7.633524-20.306173-7.766571-29.419836-18.293849-0.399139-41.094638 11.342187-97.489587 23.931681-139.166302 0.282723-0.914692-6.652309 7.018186-7.051447 7.899617-10.643694 28.039482-17.528834 62.847688-20.771835 93.997124-5.687724 10.826633-34.475591 46.699208-41.57693 51.389086s-10.32771 4.457047-13.204834 7.783202-4.573462 6.053601-1.180784 9.795524c2.877124-5.421632 8.681263-7.733309 15.117372-12.157094a102.09631 102.09631 0 0 0 13.204833-10.643694 118.710452 118.710452 0 0 0-8.980617 32.629575 134.044024 134.044024 0 0 0 18.293849 83.153861 1.663077 1.663077 0 0 0 2.877124-1.214047c-3.775185-15.117372-11.292294-29.004067-14.485403-44.387531a113.089251 113.089251 0 0 1 0.715123-50.84027 116.165944 116.165944 0 0 1 18.29385-39.481453c3.22637-4.52357 6.835247-8.598109 9.546063-13.005264a220.573932 220.573932 0 0 0 2.710816 56.378317 145.885134 145.885134 0 0 0 11.64154 34.924622c5.804139 29.93539 0 58.507057 2.727447 88.874847 2.278416 25.711174 15.832495 51.056471 34.924622 68.319212 1.330462 1.197416 3.692031-0.349246 2.5944-1.995693-7.74994-11.641541-17.429049-21.736419-23.831897-34.375806-8.315386-16.481095-10.078248-33.960037-9.579324-52.203994 0.482292-17.429049 3.326154-36.754007 0.349246-54.49904 10.194663 18.460157 25.079204 34.725052 32.579683 54.598825 6.652309 17.528834 12.522971 37.585545 22.035773 52.869224 10.610433 16.896865 29.569513 28.106005 42.075853 43.023808 17.861449 21.237496 7.400694 44.171331 5.720986 69.150751-1.347093 19.956927 4.639985 37.835007 19.674204 51.455609 2.311677 2.095477 2.744077 0.166308 1.097631-2.677554-7.400694-12.739171-14.468772-21.852835-15.06748-37.402607-0.399139-9.778894 2.744077-24.081358 3.858339-33.760467 2.195262-18.826034 2.428093-32.696098-9.363125-48.22924-12.48971-16.481095-29.93539-27.740128-41.427253-45.2357a138.817055 138.817055 0 0 1-12.306772-23.89842c8.880832 3.841708 40.27973 16.863603 57.209857 32.396744 20.555634 18.875926 29.037328 40.595715 31.847928 69.250536 0.133046 1.2972 2.428093 1.313831 2.627662 0 3.775185-23.24982-7.10134-47.830101-21.952619-65.175996z" fill="#C01D39" p-id="10813"></path><path d="M656.962956 450.098279c12.70591 12.240248 27.390882 22.069035 39.697653 34.791575 11.541756 11.891002 21.620004 23.91505 34.924621 31.681621 24.297558-47.048455 16.032064-126.294084-19.724095-160.270752-10.494017-9.978463-21.869465-14.751495-33.261545-15.832495-42.042592 23.183296-63.246827 69.56652-21.636634 109.630051z" fill="#D03F4C" p-id="10814"></path><path d="M657.877648 476.142068c14.86791 9.895309 26.243359 17.66188 37.485761 32.230436 8.315386 10.710217 14.402249 20.156496 21.76968 28.272313a42.524884 42.524884 0 0 0 3.708663-3.791816 82.355584 82.355584 0 0 0 10.810002-16.331418c-13.437664-7.766571-23.449389-19.790619-34.924622-31.681621-12.306771-12.722541-26.991743-22.551327-39.697653-34.791576-41.57693-40.06353-20.405957-86.480015 21.620004-109.63005a59.321964 59.321964 0 0 0-26.193467 3.858339c-45.036131 38.250776-49.31024 95.493894 5.421632 131.865393z" fill="#CA3346" p-id="10815"></path><path d="M597.458053 450.99634c12.439818 34.808206 50.108517 49.343501 75.17109 73.591167 14.818018 14.352356 28.272313 27.041636 44.503946 12.107202-7.367432-8.165709-13.520818-17.611988-21.76968-28.272312-11.242402-14.568556-22.61785-22.335127-37.485761-32.230437-54.731871-36.421391-50.457763-93.664509-5.421632-131.915285a86.480015 86.480015 0 0 0-31.598467 21.287389c-21.004665 21.952619-34.558745 54.26621-23.399496 85.432276z" fill="#C9293E" p-id="10816"></path><path d="M726.41306 389.462483c-5.737616-14.00311-30.15159-44.138069-48.428808-34.525483-5.138909 1.663077-8.963986 5.538047-8.215602 12.27351 0.814908 7.384063 9.462909 14.402249 12.938741 20.106604 7.550371 12.406556 9.230079 24.946158 9.978463 39.148837 0.4324 9.030509 10.693587 78.164629 31.598467 63.113781 10.859894-7.783201 10.410863-32.629575 10.693587-44.404162 0.399139-18.510049-1.463508-38.483607-8.564848-55.713087z" fill="#E05569" opacity=".5" p-id="10817"></path><path d="M719.394874 395.466192c-4.773032-14.86791-18.293849-50.39124-38.649914-48.578486-8.18234 0.715123-3.791816 8.18234 9.230078 22.684374 11.125987 12.373295 16.198372 28.721344 19.624312 45.501792 3.326154 16.36468-0.981216 42.341946 6.070231 62.365396 1.363723 3.858339 7.251017 2.128739 9.546064-1.230677 13.271356-19.458003 0.515554-60.885257-5.820771-80.742399z" fill="#EB7087" opacity=".5" p-id="10818"></path><path d="M722.188844 431.089306c-2.178631-4.141062-4.989232-3.592247-3.425939 4.008016s-2.57777 18.94245-0.465662 29.020697c1.446877 7.018186 5.155539 5.454893 6.652309 0 2.760708-9.69574 2.228523-23.382866-2.760708-33.028713zM700.003394 360.275478c-2.012323-3.326154-7.417324-9.163555-11.64154-9.978463a3.958124 3.958124 0 0 0-4.673247 4.473677c0.232831 3.326154 14.718233 16.14848 18.559941 21.802943 1.463508 2.128739 3.326154 2.328308 3.326155-1.380354 0.116415-5.38837-2.660924-10.227925-5.571309-14.917803z" fill="#F2A4B8" opacity=".5" p-id="10819"></path><path d="M319.690896 461.839604c13.703756-14.884541 25.62802-29.120482 41.876284-41.576931 17.911342-13.687126 37.851637-26.509451 50.108517-46.000716C430.584885 344.143629 404.474572 323.987133 377.183475 318.582132c-48.728163 7.683417-87.760585 50.108517-98.903202 100.616172A152.071781 152.071781 0 0 0 274.588242 456.16851a0.482292 0.482292 0 0 1 0 0.149677 70.664151 70.664151 0 0 0 0.981215 19.607681c0.931323 0.299354 1.746231 0.698492 2.710816 0.931323 16.248264 4.107801 30.617252-3.309524 41.410623-15.017587z" fill="#D03F4C" p-id="10820"></path><path d="M334.908052 481.929577c12.739171-19.308327 22.085665-36.803899 39.448192-52.719548 18.293849-16.763818 45.0195-29.71919 57.043548-52.037687 16.963388-31.515313-9.246709-50.690594-35.53996-59.787626a102.112941 102.112941 0 0 0-18.676357 1.197416C404.474572 323.987133 430.584885 344.143629 411.675697 374.32848c-12.256879 19.491265-32.197175 32.31359-50.108517 46.000716-16.248264 12.389925-28.172528 26.609235-41.876284 41.576931-10.793371 11.641541-25.162358 19.125388-41.443885 14.967695-0.964585-0.232831-1.779493-0.631969-2.710815-0.931323a83.868984 83.868984 0 0 0 6.801985 20.888249 35.290499 35.290499 0 0 0 8.648002 3.542355c17.44568 4.457047 34.309283-3.858339 43.921869-18.443526z" fill="#CA3346" p-id="10821"></path><path d="M320.056773 528.761831c11.641541 1.746231 18.892557-3.01017 26.609235-11.275664 15.366834-16.630772 25.677912-39.098945 40.412777-56.66104 15.782603-18.809403 33.777098-34.841468 51.289301-51.88801 11.059464-10.76011 29.93539-25.611389 32.779252-41.57693 3.958124-22.850681-28.588297-39.564607-46.383224-45.102654a106.436942 106.436942 0 0 0-28.854389-4.822924c26.293251 9.097032 52.503348 28.272313 35.53996 59.787626-12.073941 22.268604-38.816222 35.240606-57.093441 51.987794-17.362526 15.915649-26.70902 33.411221-39.448192 52.719548-9.612586 14.585187-26.476189 22.900573-43.921869 18.426895a35.290499 35.290499 0 0 1-8.648002-3.542354c7.650155 16.048695 20.539004 29.336682 37.718592 31.947713z" fill="#C9293E" p-id="10822"></path><path d="M378.597091 326.332072c-8.797678-1.829385-22.434912 1.663077-34.009929 8.714525-6.835247 4.174324-9.978463 9.978463-5.105647 17.113064 2.095477 3.076693 5.837401 4.989232 8.315386 7.833094a46.067239 46.067239 0 0 1 8.099186 14.21931c1.879277 4.606724 3.076693 9.69574 6.402847 13.554079 14.784756 17.212849 37.25293-5.754247 39.647761-21.620003 1.463508-9.762263 8.681263-33.16176-23.349604-39.814069z" fill="#E05569" opacity=".5" p-id="10823"></path><path d="M382.821307 333.516566c-12.439818-3.425939-24.181143 0.365877-26.06042 5.255324a9.496171 9.496171 0 0 0 0.631969 7.749939c2.943647 6.386217 5.937186 10.12814 6.968294 17.412419 0.964585 6.835247 2.095477 15.350203 9.113663 18.726249 6.502632 3.126585 12.406556-1.097631 16.16511-6.336324 9.579325-13.387772 11.757956-37.652068-6.818616-42.807607z" fill="#EB7087" opacity=".5" p-id="10824"></path><path d="M382.804676 351.644107C372.377182 349.049707 365.209319 369.222833 378.181321 375.126758c2.79397 1.263939 6.086863-2.611031 7.683417-4.789663 3.22637-4.440416 5.022493-16.697295-3.060062-18.692988z" fill="#F2A4B8" opacity=".5" p-id="10825"></path><path d="M747.218156 707.29317c-0.083154-0.548815-0.931323-0.399139-0.947954 0.133047a383.089837 383.089837 0 0 1-17.711772 101.680541c-10.610433 33.544268-26.093682 66.639504-42.075854 97.938617-14.784756 28.920913-29.087221 62.698011-53.218471 85.116292-13.304618 12.27351-39.498084 17.262742-68.967812 12.805695-28.42199-4.290739-57.758672-19.740727-64.627181-24.380712-35.10756-23.68222-65.724812-53.434671-92.267524-86.313708a630.988128 630.988128 0 0 1-72.776259-111.659004c-19.707465-39.115576-34.725052-81.374368-37.302822-128.472715a170.448784 170.448784 0 0 1-0.232831-20.123235c0.199569-2.644293-0.848169-2.062216-1.313831 0-10.893156 47.863362 6.552524 100.516387 28.039482 145.851872 20.854988 43.9385 48.062932 83.918876 78.730076 121.720622 28.555036 35.174083 61.533857 69.982289 100.000833 94.030386 33.644052 20.988035 83.35343 41.161161 121.637468 18.194065 30.351159-18.194065 44.271116-49.792532 59.188918-78.16463 35.75616-67.687243 77.033737-149.24455 63.845534-228.357133z" fill="#C21D41" p-id="10826"></path><path d="M726.61263 523.090738c-8.18234 14.485403-19.707465 24.031466-35.905838 7.96614-6.219909-6.136755-12.007418-12.123833-19.108757-17.262742-16.630772-11.957525-35.855945-20.156496-50.574178-34.608637-38.533499-37.785114-26.509451-97.77231 16.348049-125.861684a0.4324 0.4324 0 0 0-0.449031-0.748385c-51.389086 24.696697-60.935149 94.911817-19.591049 133.545101 10.410863 9.712371 22.867312 16.79708 34.924621 24.164512A186.430956 186.430956 0 0 1 688.361854 538.973125c16.630772 16.630772 33.727206 3.675401 39.398299-15.649557 0.631969-1.92917-0.149677-1.995693-1.147523-0.23283zM457.809459 339.669951c-0.898062-0.582077-1.214046 0.582077-0.532185 1.330462 21.154342 22.784158-0.199569 47.613901-19.773988 61.666903-17.046541 12.240248-31.249221 23.499281-45.086024 39.63113-14.21931 16.630772-24.713327 35.007775-35.589852 53.567718-6.868509 11.641541-17.063172 24.596912-31.980975 25.262143-14.502033 0.631969-27.923067-11.641541-38.250776-20.156496-1.663077-1.413616-2.744077-1.2972-1.663077 0.615338 12.48971 23.283081 35.490068 36.587699 59.155656 21.802943 12.073941-7.517109 19.225173-19.857142 25.41182-32.230437 8.115817-16.165111 20.505742-31.598467 32.596314-45.21907a202.596067 202.596067 0 0 1 37.435868-32.712728c10.244556-7.217755 19.142019-15.416726 25.810958-26.25999 9.329863-15.333572 10.743479-35.556591-7.533739-47.297916z" fill="#C01D39" p-id="10827"></path>
        </g>
    </g>
</svg>